<svg xmlns="http://www.w3.org/2000/svg" xmlns:xlink="http://www.w3.org/1999/xlink" width="500" zoomAndPan="magnify" viewBox="0 0 375 374.999991" height="500" preserveAspectRatio="xMidYMid meet" version="1.0"><defs><g/></defs><g fill="#ffa857" fill-opacity="1"><g transform="translate(22.249782, 187.6864)"><g><path d="M 2.453125 -26.5 L 0.265625 -26.5 L 2.453125 -36.296875 L 12.25 -36.296875 L 17.421875 -27.859375 L 22.578125 -36.296875 L 32.375 -36.296875 L 32.375 0 L 22.578125 0 L 22.578125 -20.359375 L 17.421875 -12.03125 L 12.25 -20.359375 L 12.25 0 L 2.453125 0 Z M 2.453125 -26.5 "/></g></g></g><g fill="#ffa857" fill-opacity="1"><g transform="translate(57.080036, 187.6864)"><g><path d="M 11.421875 -0.109375 C 9.753906 -0.179688 8.476562 -0.351562 7.59375 -0.625 C 6.707031 -0.894531 5.863281 -1.394531 5.0625 -2.125 C 3.71875 -3.320312 2.703125 -4.878906 2.015625 -6.796875 C 1.328125 -8.722656 0.984375 -10.9375 0.984375 -13.4375 C 0.984375 -15.4375 1.21875 -17.25 1.6875 -18.875 C 2.15625 -20.507812 2.820312 -21.90625 3.6875 -23.0625 C 4.5625 -24.226562 5.625 -25.117188 6.875 -25.734375 C 8.132812 -26.359375 9.523438 -26.671875 11.046875 -26.671875 C 11.878906 -26.671875 12.628906 -26.578125 13.296875 -26.390625 C 13.972656 -26.210938 14.675781 -25.925781 15.40625 -25.53125 L 15.40625 -26.5 L 24 -26.5 L 24 -8.703125 L 25.90625 -8.703125 L 24 0 L 15.078125 0 L 15.078125 -8 L 13.28125 0 Z M 15.078125 -13.828125 C 15.078125 -14.472656 15.066406 -15.003906 15.046875 -15.421875 C 15.023438 -15.835938 14.988281 -16.179688 14.9375 -16.453125 C 14.882812 -16.734375 14.820312 -16.953125 14.75 -17.109375 C 14.675781 -17.273438 14.566406 -17.429688 14.421875 -17.578125 C 14.023438 -18.015625 13.535156 -18.234375 12.953125 -18.234375 C 12.117188 -18.234375 11.445312 -17.804688 10.9375 -16.953125 C 10.425781 -16.097656 10.171875 -14.984375 10.171875 -13.609375 C 10.171875 -10.304688 11.460938 -8.65625 14.046875 -8.65625 C 14.117188 -8.65625 14.257812 -8.65625 14.46875 -8.65625 C 14.6875 -8.65625 14.890625 -8.671875 15.078125 -8.703125 Z M 15.078125 -13.828125 "/></g></g></g><g fill="#ffa857" fill-opacity="1"><g transform="translate(83.25715, 187.6864)"><g><path d="M 2.28125 -28.296875 L 0.265625 -28.296875 L 2.28125 -37.171875 L 11.203125 -37.171875 L 11.203125 -18.5 L 12.953125 -26.5 L 15.515625 -26.5 C 16.960938 -26.5 18.09375 -26.367188 18.90625 -26.109375 C 19.726562 -25.859375 20.460938 -25.410156 21.109375 -24.765625 C 21.660156 -24.222656 22.078125 -23.632812 22.359375 -23 C 22.648438 -22.363281 22.867188 -21.570312 23.015625 -20.625 C 23.054688 -20.332031 23.082031 -20.085938 23.09375 -19.890625 C 23.113281 -19.691406 23.132812 -19.410156 23.15625 -19.046875 C 23.175781 -18.679688 23.1875 -18.191406 23.1875 -17.578125 C 23.1875 -16.960938 23.1875 -16.109375 23.1875 -15.015625 L 23.1875 -8.703125 L 25.09375 -8.703125 L 23.1875 0 L 14.265625 0 L 14.265625 -10.015625 C 14.265625 -11.578125 14.253906 -12.78125 14.234375 -13.625 C 14.210938 -14.476562 14.179688 -15.125 14.140625 -15.5625 C 14.109375 -16 14.066406 -16.289062 14.015625 -16.4375 C 13.960938 -16.582031 13.878906 -16.726562 13.765625 -16.875 C 13.367188 -17.375 12.695312 -17.625 11.75 -17.625 C 11.570312 -17.625 11.390625 -17.609375 11.203125 -17.578125 L 11.203125 0 L 2.28125 0 Z M 2.28125 -28.296875 "/></g></g></g><g fill="#ffa857" fill-opacity="1"><g transform="translate(108.672357, 187.6864)"><g><path d="M 11.421875 -0.109375 C 9.753906 -0.179688 8.476562 -0.351562 7.59375 -0.625 C 6.707031 -0.894531 5.863281 -1.394531 5.0625 -2.125 C 3.71875 -3.320312 2.703125 -4.878906 2.015625 -6.796875 C 1.328125 -8.722656 0.984375 -10.9375 0.984375 -13.4375 C 0.984375 -15.4375 1.21875 -17.25 1.6875 -18.875 C 2.15625 -20.507812 2.820312 -21.90625 3.6875 -23.0625 C 4.5625 -24.226562 5.625 -25.117188 6.875 -25.734375 C 8.132812 -26.359375 9.523438 -26.671875 11.046875 -26.671875 C 11.878906 -26.671875 12.628906 -26.578125 13.296875 -26.390625 C 13.972656 -26.210938 14.675781 -25.925781 15.40625 -25.53125 L 15.40625 -26.5 L 24 -26.5 L 24 -8.703125 L 25.90625 -8.703125 L 24 0 L 15.078125 0 L 15.078125 -8 L 13.28125 0 Z M 15.078125 -13.828125 C 15.078125 -14.472656 15.066406 -15.003906 15.046875 -15.421875 C 15.023438 -15.835938 14.988281 -16.179688 14.9375 -16.453125 C 14.882812 -16.734375 14.820312 -16.953125 14.75 -17.109375 C 14.675781 -17.273438 14.566406 -17.429688 14.421875 -17.578125 C 14.023438 -18.015625 13.535156 -18.234375 12.953125 -18.234375 C 12.117188 -18.234375 11.445312 -17.804688 10.9375 -16.953125 C 10.425781 -16.097656 10.171875 -14.984375 10.171875 -13.609375 C 10.171875 -10.304688 11.460938 -8.65625 14.046875 -8.65625 C 14.117188 -8.65625 14.257812 -8.65625 14.46875 -8.65625 C 14.6875 -8.65625 14.890625 -8.671875 15.078125 -8.703125 Z M 15.078125 -13.828125 "/></g></g></g><g fill="#ffa857" fill-opacity="1"><g transform="translate(134.849471, 187.6864)"><g><path d="M 2.28125 -17.578125 L 0.265625 -17.578125 L 2.28125 -26.5 L 11.203125 -26.5 L 11.203125 -24.109375 C 11.753906 -24.984375 12.421875 -25.617188 13.203125 -26.015625 C 13.984375 -26.410156 14.96875 -26.609375 16.15625 -26.609375 C 16.34375 -26.609375 16.523438 -26.609375 16.703125 -26.609375 C 16.890625 -26.609375 17.109375 -26.570312 17.359375 -26.5 L 15.40625 -17.578125 C 14.851562 -17.867188 14.378906 -18.015625 13.984375 -18.015625 C 13.546875 -18.015625 13.128906 -17.914062 12.734375 -17.71875 C 12.335938 -17.519531 12.03125 -17.253906 11.8125 -16.921875 C 11.695312 -16.742188 11.59375 -16.546875 11.5 -16.328125 C 11.414062 -16.109375 11.351562 -15.828125 11.3125 -15.484375 C 11.28125 -15.140625 11.253906 -14.703125 11.234375 -14.171875 C 11.210938 -13.648438 11.203125 -12.988281 11.203125 -12.1875 L 11.203125 0 L 2.28125 0 Z M 2.28125 -17.578125 "/></g></g></g><g fill="#ffa857" fill-opacity="1"><g transform="translate(151.938066, 187.6864)"><g><path d="M 11.421875 -0.109375 C 9.753906 -0.179688 8.476562 -0.351562 7.59375 -0.625 C 6.707031 -0.894531 5.863281 -1.394531 5.0625 -2.125 C 3.71875 -3.320312 2.703125 -4.878906 2.015625 -6.796875 C 1.328125 -8.722656 0.984375 -10.9375 0.984375 -13.4375 C 0.984375 -15.4375 1.21875 -17.25 1.6875 -18.875 C 2.15625 -20.507812 2.820312 -21.90625 3.6875 -23.0625 C 4.5625 -24.226562 5.625 -25.117188 6.875 -25.734375 C 8.132812 -26.359375 9.523438 -26.671875 11.046875 -26.671875 C 11.878906 -26.671875 12.628906 -26.578125 13.296875 -26.390625 C 13.972656 -26.210938 14.675781 -25.925781 15.40625 -25.53125 L 15.40625 -26.5 L 24 -26.5 L 24 -8.703125 L 25.90625 -8.703125 L 24 0 L 15.078125 0 L 15.078125 -8 L 13.28125 0 Z M 15.078125 -13.828125 C 15.078125 -14.472656 15.066406 -15.003906 15.046875 -15.421875 C 15.023438 -15.835938 14.988281 -16.179688 14.9375 -16.453125 C 14.882812 -16.734375 14.820312 -16.953125 14.75 -17.109375 C 14.675781 -17.273438 14.566406 -17.429688 14.421875 -17.578125 C 14.023438 -18.015625 13.535156 -18.234375 12.953125 -18.234375 C 12.117188 -18.234375 11.445312 -17.804688 10.9375 -16.953125 C 10.425781 -16.097656 10.171875 -14.984375 10.171875 -13.609375 C 10.171875 -10.304688 11.460938 -8.65625 14.046875 -8.65625 C 14.117188 -8.65625 14.257812 -8.65625 14.46875 -8.65625 C 14.6875 -8.65625 14.890625 -8.671875 15.078125 -8.703125 Z M 15.078125 -13.828125 "/></g></g></g><g fill="#ffa857" fill-opacity="1"><g transform="translate(178.11518, 187.6864)"><g><path d="M 0.328125 1.84375 L 0.546875 1.84375 C 0.984375 1.84375 1.335938 1.796875 1.609375 1.703125 C 1.878906 1.617188 2.085938 1.410156 2.234375 1.078125 C 2.378906 0.753906 2.46875 0.285156 2.5 -0.328125 C 2.539062 -0.941406 2.5625 -1.796875 2.5625 -2.890625 L 2.5625 -17.578125 L 0.546875 -17.578125 L 2.5625 -26.5 L 11.484375 -26.5 L 11.484375 -4.359375 C 11.484375 -2.828125 11.460938 -1.535156 11.421875 -0.484375 C 11.390625 0.566406 11.335938 1.460938 11.265625 2.203125 C 11.191406 2.941406 11.070312 3.570312 10.90625 4.09375 C 10.75 4.625 10.5625 5.109375 10.34375 5.546875 C 9.9375 6.304688 9.367188 6.941406 8.640625 7.453125 C 7.921875 7.960938 7.070312 8.304688 6.09375 8.484375 C 5.507812 8.628906 4.09375 8.703125 1.84375 8.703125 L -1.203125 8.703125 Z M 4.078125 -37.390625 L 12.953125 -37.390625 L 11.046875 -28.515625 L 2.125 -28.515625 Z M 4.078125 -37.390625 "/></g></g></g><g fill="#ffa857" fill-opacity="1"><g transform="translate(191.669352, 187.6864)"><g/></g></g><path stroke-linecap="butt" transform="matrix(0.314013, 0, 0, 0.314013, 201.167422, 132.420195)" fill="none" stroke-linejoin="miter" d="M 7.789048 91.587086 L 0.847645 91.587086 L 7.789048 60.400531 L 47.136105 60.400531 L 48.03177 56.419799 L 75.063435 56.419799 L 67.238807 91.587086 L 39.012922 91.587086 L 39.012922 106.688992 L 69.316252 106.688992 L 62.748042 135.636384 L 39.012922 135.636384 L 39.012922 176.003504 L 7.789048 176.003504 Z M 115.953026 89.845515 C 121.252377 89.845515 126.141214 90.915337 130.594659 93.067421 C 135.048104 95.207065 138.891999 98.242374 142.101465 102.160908 C 145.348251 106.079442 147.861088 110.731923 149.639978 116.130792 C 151.443748 121.479902 152.339413 127.351483 152.339413 133.733096 C 152.339413 140.189347 151.443748 146.135567 149.639978 151.584195 C 147.861088 156.995504 145.348251 161.635546 142.101465 165.50432 C 138.891999 169.373095 134.998345 172.371085 130.420502 174.523168 C 125.855099 176.662812 120.866743 177.732634 115.442994 177.732634 C 110.230722 177.732634 105.441403 176.637933 101.099916 174.43609 C 96.783309 172.234247 93.001613 169.174059 89.754827 165.255525 C 86.545361 161.336991 84.032524 156.684509 82.228754 151.335399 C 80.449864 145.93653 79.566639 140.077389 79.566639 133.733096 C 79.566639 127.351483 80.449864 121.479902 82.228754 116.130792 C 84.032524 110.731923 86.545361 106.116761 89.754827 102.247986 C 93.001613 98.379212 96.845508 95.343903 101.274073 93.1545 C 105.727518 90.952657 110.616356 89.845515 115.953026 89.845515 Z M 115.953026 118.792908 C 113.30335 118.792908 111.275665 120.161284 109.857529 122.898038 C 108.476712 125.597473 107.780084 129.491127 107.780084 134.579002 C 107.780084 139.766394 108.476712 143.722247 109.857529 146.459001 C 111.275665 149.170876 113.30335 150.526813 115.953026 150.526813 C 118.602701 150.526813 120.617947 149.170876 121.998764 146.459001 C 123.379581 143.722247 124.076209 139.878352 124.076209 134.914876 C 124.076209 124.166897 121.364335 118.792908 115.953026 118.792908 Z M 194.983014 89.845515 C 200.282365 89.845515 205.171202 90.915337 209.624647 93.067421 C 214.078092 95.207065 217.921988 98.242374 221.131454 102.160908 C 224.378239 106.079442 226.891077 110.731923 228.669967 116.130792 C 230.473736 121.479902 231.369401 127.351483 231.369401 133.733096 C 231.369401 140.189347 230.473736 146.135567 228.669967 151.584195 C 226.891077 156.995504 224.378239 161.635546 221.131454 165.50432 C 217.921988 169.373095 214.028333 172.371085 209.45049 174.523168 C 204.885087 176.662812 199.896731 177.732634 194.472983 177.732634 C 189.260711 177.732634 184.471391 176.637933 180.129904 174.43609 C 175.813297 172.234247 172.031601 169.174059 168.784816 165.255525 C 165.57535 161.336991 163.062512 156.684509 161.258742 151.335399 C 159.479852 145.93653 158.596627 140.077389 158.596627 133.733096 C 158.596627 127.351483 159.479852 121.479902 161.258742 116.130792 C 163.062512 110.731923 165.57535 106.116761 168.784816 102.247986 C 172.031601 98.379212 175.875496 95.343903 180.304062 93.1545 C 184.757506 90.952657 189.646344 89.845515 194.983014 89.845515 Z M 194.983014 118.792908 C 192.333339 118.792908 190.305653 120.161284 188.887517 122.898038 C 187.5067 125.597473 186.810072 129.491127 186.810072 134.579002 C 186.810072 139.766394 187.5067 143.722247 188.887517 146.459001 C 190.305653 149.170876 192.333339 150.526813 194.983014 150.526813 C 197.63269 150.526813 199.647936 149.170876 201.028752 146.459001 C 202.422009 143.722247 203.106197 139.878352 203.106197 134.914876 C 203.106197 124.166897 200.394323 118.792908 194.983014 118.792908 Z M 274.523034 175.829346 C 271.276249 175.717388 268.726092 175.63031 266.860123 175.580551 C 265.031474 175.518352 263.538699 175.406394 262.381798 175.232237 C 261.224898 175.04564 260.267034 174.796844 259.495767 174.523168 C 258.761819 174.237053 257.878594 173.876299 256.833652 173.416027 C 250.713275 170.517556 245.973715 165.603839 242.614972 158.687315 C 239.293548 151.758352 237.626616 143.361494 237.626616 133.521619 C 237.626616 127.052928 238.348123 121.206227 239.778699 115.956635 C 241.221715 110.682164 243.32404 106.1914 246.085673 102.496782 C 248.884626 98.802164 252.23093 95.978332 256.161903 94.037725 C 260.080437 92.059798 264.459243 91.077055 269.310762 91.077055 C 271.736521 91.077055 273.901044 91.313411 275.791893 91.798562 C 277.70762 92.246395 279.946783 93.054981 282.521819 94.211882 L 282.521819 85.864782 L 276.090447 85.864782 L 282.521819 57.601579 L 310.909421 57.601579 L 310.909421 148.287651 L 317.004918 148.287651 L 310.909421 176.003504 L 282.521819 176.003504 L 282.521819 150.526813 L 276.762196 176.003504 Z M 282.521819 133.347462 C 282.521819 130.921703 282.47206 128.993536 282.397421 127.55052 C 282.335222 126.107504 282.223264 124.900845 282.049107 123.905661 C 281.88739 122.922918 281.626154 122.151651 281.29028 121.579421 C 280.954406 120.99475 280.543892 120.41008 280.058741 119.85029 C 278.789882 118.805347 277.409065 118.282876 275.91629 118.282876 C 273.154657 118.282876 270.952814 119.613934 269.310762 122.263609 C 267.706029 124.913284 266.909882 128.433745 266.909882 132.837431 C 266.909882 138.398017 267.880186 142.39119 269.820793 144.816949 C 271.79872 147.242708 274.983306 148.449368 279.386992 148.449368 C 279.610908 148.449368 280.033861 148.449368 280.655851 148.449368 C 281.30272 148.449368 281.924709 148.399609 282.521819 148.287651 Z M 326.197923 144.642792 C 330.116457 147.292467 333.350803 149.195755 335.88852 150.352656 C 338.426237 151.509556 340.677839 152.094226 342.655766 152.094226 C 345.529357 152.094226 346.972373 150.987085 346.972373 148.797682 C 346.972373 147.75274 346.474782 146.807316 345.492038 145.96141 C 344.509295 145.078185 342.518928 143.883965 339.520939 142.353871 C 327.951934 136.718646 322.179871 128.471064 322.179871 117.611127 C 322.179871 113.543316 322.888939 109.823819 324.331955 106.440196 C 325.79985 103.019253 327.827536 100.095903 330.427452 97.670143 C 333.027368 95.244384 336.112436 93.341096 339.695096 91.96028 C 343.277755 90.554583 347.208729 89.845515 351.500457 89.845515 C 353.329106 89.845515 355.107996 89.969913 356.824687 90.231149 C 358.578698 90.455065 360.370027 90.790939 362.198677 91.238772 C 364.064645 91.699044 365.992813 92.333473 367.995619 93.1545 C 370.035745 93.963086 372.312226 94.958269 374.862383 96.11517 L 369.69987 120.522038 C 363.094341 116.715463 358.118425 114.812175 354.759682 114.812175 C 353.851577 114.812175 353.08031 115.11073 352.433441 115.70784 C 351.811452 116.26763 351.500457 117.014018 351.500457 117.947002 C 351.500457 118.506792 351.550216 118.979504 351.662174 119.340258 C 351.786572 119.676133 352.209525 120.111525 352.943473 120.658876 C 353.7023 121.156468 354.88408 121.877976 356.488813 122.81096 C 358.130865 123.719065 360.444666 125.037682 363.430216 126.791693 C 372.68542 131.867127 377.313022 139.43052 377.313022 149.469431 C 377.313022 153.6492 376.516875 157.443336 374.937022 160.851839 C 373.394488 164.235462 371.205085 167.208572 368.381252 169.783608 C 365.55742 172.321326 362.198677 174.274373 358.317462 175.667629 C 354.448687 177.048446 350.206719 177.732634 345.579117 177.732634 C 337.505693 177.732634 328.897358 175.891545 319.766552 172.196928 Z M 326.197923 144.642792 " stroke="#ffa857" stroke-width="4.658056" stroke-opacity="1" stroke-miterlimit="4"/></svg>